<svg width="1735" height="1091" viewBox="0 0 1735 1091" fill="none" xmlns="http://www.w3.org/2000/svg">
<path d="M811.675 93.831C510.807 208.406 533.904 -92.4265 238.284 65.5459C178.789 97.3384 98.5003 95.0684 1.577 76.4532C1.33125 127.462 -2.61938 843.66 -3 922.664C66.8325 955.088 129.419 981.07 189.597 1000.55C609.378 1136.41 807.607 938.359 1143.53 1076.44C1264.01 1125.96 1491.36 1044.63 1733.01 901.204C1734.3 633.259 1742.76 328.641 1737.03 68.2889C1507.52 -51.3225 1044.97 4.98923 811.675 93.831Z" fill="#26685C"/>
<path d="M442.737 863.35L445.57 854.14L450.529 861.225H458.322L454.072 868.309L458.322 876.102L449.821 873.268L442.737 879.644V871.143L437.069 866.892L442.737 863.35Z" fill="#F9D05A"/>
<path d="M1060.53 899.212L1068.75 894.182L1067.79 902.775L1073.63 907.933L1065.75 910.433L1063.78 919.091L1059.29 911.34L1049.76 911.432L1055.38 905.056L1053.94 898.121L1060.53 899.212Z" fill="#F9D05A"/>
<path d="M1304.72 558.112L1304.36 548.987L1311.02 553.762L1317.99 551.311L1316.42 558.983L1322.68 564.615L1314.18 564.757L1309.85 572.684L1307.17 565.083L1300.77 563.064L1304.72 558.112Z" fill="#F9D05A"/>
<path d="M1325.53 216.058L1334.63 215.346L1330.12 222.184L1332.83 229.056L1325.11 227.779L1319.72 234.247L1319.25 225.764L1311.16 221.737L1318.65 218.776L1320.43 212.299L1325.53 216.058Z" fill="#F9D05A"/>
<path d="M882.753 990.314L891.857 989.602L887.342 996.44L890.059 1003.31L882.332 1002.03L876.945 1008.5L876.477 1000.02L868.388 995.992L875.881 993.031L877.653 986.554L882.753 990.314Z" fill="#F9D05A"/>
<path d="M925.571 913.327L932.112 912.816L928.868 917.729L930.82 922.666L925.268 921.749L921.397 926.396L921.061 920.301L915.249 917.407L920.633 915.28L921.906 910.626L925.571 913.327Z" fill="#F9D05A"/>
<path d="M1146.69 753.075L1150.47 740.79L1157.08 750.241H1167.47L1161.8 759.684L1167.47 770.077L1156.14 766.294L1146.69 774.795V763.46L1139.13 757.793L1146.69 753.075Z" fill="#F9D05A"/>
<path d="M351.376 835.339L360.118 831.294L358.163 839.717L363.37 845.512L355.259 847.085L352.304 855.451L348.727 847.233L339.255 846.22L345.581 840.539L344.951 833.483L351.376 835.339Z" fill="#F9D05A"/>
<path d="M419.896 434.132L428.638 430.087L426.683 438.51L431.89 444.305L423.778 445.878L420.824 454.244L417.247 446.027L407.775 445.013L414.101 439.332L413.471 432.276L419.896 434.132Z" fill="#F9D05A"/>
<path d="M339.251 89.6434L345.055 86.958L343.757 92.5499L347.214 96.3969L341.829 97.4409L339.867 102.995L337.492 97.5397L331.205 96.8672L335.404 93.0954L334.986 88.4112L339.251 89.6434Z" fill="#F9D05A"/>
<path d="M449.674 635.641L456.687 639.345L450.196 642.27L449.002 648.571L443.923 644.046L436.97 646.289L440.564 639.844L436.499 633.138L443.377 634.443L447.681 630.508L449.674 635.641Z" fill="#F9D05A"/>
<path d="M333.886 370.745L341.559 380.241L330.601 380.44L325.085 388.63L320.647 379.145L309.45 378.097L318.446 371.161L316.766 359.205L325.705 365.227L334.183 362.273L333.886 370.745Z" fill="#F9D05A"/>
<path d="M1434.13 386.47L1441.81 395.967L1430.85 396.165L1425.33 404.355L1420.89 394.87L1409.7 393.823L1418.69 386.887L1417.01 374.931L1425.95 380.952L1434.43 377.998L1434.13 386.47Z" fill="#F9D05A"/>
<path d="M397.807 949.383L404.906 946.103L403.319 952.939L407.541 957.644L400.96 958.919L398.558 965.706L395.661 959.039L387.974 958.217L393.103 953.612L392.6 947.888L397.807 949.383Z" fill="#F9D05A"/>
<path d="M481.712 136.743L474.096 135.099C476.859 122.276 469.321 118.012 454.628 110.984L454.147 110.75C449.853 108.696 446.913 105.494 445.419 101.222C442.089 91.7356 447.473 80.3864 447.707 79.9047L454.728 83.291L451.221 81.5978L454.735 83.2839C454.43 83.9215 447.431 98.8909 457.519 103.722L458.001 103.949C471.716 110.516 485.906 117.303 481.712 136.743Z" fill="#EF3536"/>
<path d="M1377.45 119.814L1378.95 112.168C1391.82 114.692 1395.94 107.076 1402.7 92.2543L1402.92 91.7683C1404.89 87.4376 1408.04 84.4384 1412.28 82.8641C1421.71 79.3582 1433.15 84.5298 1433.64 84.7545L1430.39 91.8371L1432.01 88.2994L1430.39 91.844C1429.75 91.5514 1414.65 84.8323 1410.01 95.0088L1409.79 95.4947C1403.48 109.33 1396.96 123.644 1377.45 119.814Z" fill="#EF3536"/>
<path d="M1150.89 1045.31L1143.28 1043.66C1146.04 1030.84 1138.5 1026.58 1123.81 1019.55L1123.33 1019.31C1119.03 1017.26 1116.09 1014.06 1114.6 1009.79C1111.27 1000.3 1116.65 988.95 1116.89 988.468L1123.91 991.854L1120.4 990.161L1123.91 991.847C1123.61 992.485 1116.61 1007.45 1126.7 1012.29L1127.18 1012.51C1140.89 1019.08 1155.08 1025.87 1150.89 1045.31Z" fill="#EF3536"/>
<path d="M590.685 162.084L589.319 156.624C592.456 155.841 598.32 150.59 599.354 145.847C599.758 143.999 599.328 142.684 597.962 141.594C592.461 137.193 589.406 131.62 589.574 126.303C589.677 123.043 591.064 118.269 597.082 114.057L600.311 118.668C597.015 120.976 595.296 123.606 595.204 126.482C595.091 129.957 597.44 133.964 601.483 137.193C604.512 139.619 605.71 143.114 604.855 147.044C603.386 153.784 595.9 160.779 590.685 162.084Z" fill="#EF3536"/>
<path d="M368.095 255.997C365.36 255.997 361.584 255.083 357.986 251.158C354.613 247.481 350.993 245.646 347.175 245.646C342.584 245.668 337.675 248.431 332.992 253.63L327.204 248.416C333.403 241.537 340.296 237.882 347.146 237.854C347.175 237.854 347.203 237.854 347.231 237.854C353.204 237.854 358.914 240.631 363.738 245.894C365.963 248.317 367.741 248.232 368.329 248.197C372.041 248.005 376.122 243.62 377.255 242.097L383.525 246.73C382.859 247.63 376.809 255.55 368.761 255.983C368.541 255.99 368.322 255.997 368.095 255.997Z" fill="#EF3536"/>
<path d="M1365.97 809.084C1363.23 809.084 1359.45 808.17 1355.86 804.245C1352.48 800.568 1348.86 798.733 1345.04 798.733C1340.45 798.754 1335.54 801.517 1330.86 806.717L1325.07 801.503C1331.27 794.624 1338.17 790.969 1345.02 790.94C1345.04 790.94 1345.07 790.94 1345.1 790.94C1351.07 790.94 1356.78 793.717 1361.61 798.981C1363.83 801.404 1365.61 801.319 1366.2 801.284C1369.91 801.092 1373.99 796.707 1375.13 795.184L1381.39 799.817C1380.73 800.717 1374.68 808.637 1366.63 809.069C1366.41 809.076 1366.19 809.084 1365.97 809.084Z" fill="#EF3536"/>
<path d="M595.905 966.629C593.752 968.315 590.216 969.923 584.963 969.052C580.041 968.236 576.059 969.023 573.053 971.377C569.451 974.225 567.289 979.427 566.808 986.408L559.037 985.871C559.676 976.633 562.85 969.505 568.226 965.259C568.248 965.242 568.271 965.224 568.293 965.207C572.995 961.525 579.203 960.191 586.246 961.361C589.492 961.897 590.839 960.734 591.28 960.343C594.085 957.904 594.594 951.936 594.548 950.038L602.341 949.82C602.371 950.939 602.491 960.905 596.421 966.207C596.252 966.348 596.084 966.489 595.905 966.629Z" fill="#EF3536"/>
<path d="M289.104 720.44C286.634 721.614 282.832 722.411 277.896 720.412C273.272 718.54 269.214 718.438 265.766 720.078C261.629 722.069 258.382 726.673 256.387 733.38L248.921 731.157C251.564 722.283 256.219 716.021 262.393 713.053C262.419 713.041 262.444 713.028 262.47 713.016C267.863 710.451 274.212 710.507 280.83 713.188C283.88 714.42 285.449 713.58 285.965 713.295C289.235 711.528 291.036 705.815 291.406 703.953L299.058 705.444C298.843 706.543 296.781 716.294 289.699 720.141C289.504 720.241 289.308 720.342 289.104 720.44Z" fill="#EF3536"/>
<path d="M963.157 114.232C962.2 113.658 953.748 108.373 952.558 100.403C952.154 97.6682 952.48 93.5096 956.341 89.2307C959.685 85.5326 961.194 81.7354 960.819 77.9523C960.365 73.3828 957.156 68.7567 951.538 64.5769L956.185 58.3214C963.617 63.8472 967.896 70.372 968.569 77.1872C969.157 83.1664 966.925 89.1386 962.115 94.4589C959.912 96.896 960.167 98.6671 960.252 99.248C960.79 102.932 965.537 106.573 967.159 107.565L963.157 114.232Z" fill="#EF3536"/>
<path d="M1320.42 1058.15C1319.31 1058.18 1309.34 1058.2 1304.09 1052.09C1302.29 1049.99 1300.35 1046.3 1301.34 1040.62C1302.2 1035.71 1301.46 1031.69 1299.13 1028.69C1296.31 1025.06 1291.13 1022.86 1284.15 1022.31L1284.75 1014.54C1293.99 1015.26 1301.08 1018.5 1305.28 1023.92C1308.96 1028.66 1310.25 1034.91 1309.01 1041.97C1308.45 1045.21 1309.61 1046.57 1309.99 1047.02C1312.4 1049.85 1318.36 1050.4 1320.26 1050.38L1320.42 1058.15Z" fill="#EF3536"/>
<path d="M1223.51 365.461C1227.03 365.461 1229.89 362.606 1229.89 359.085C1229.89 355.563 1227.03 352.709 1223.51 352.709C1219.99 352.709 1217.13 355.563 1217.13 359.085C1217.13 362.606 1219.99 365.461 1223.51 365.461Z" fill="#FCF8F7"/>
<path d="M541.424 162.02C545.532 162.02 548.862 158.689 548.862 154.581C548.862 150.473 545.532 147.142 541.424 147.142C537.315 147.142 533.985 150.473 533.985 154.581C533.985 158.689 537.315 162.02 541.424 162.02Z" fill="#FCF8F7"/>
<path d="M1209.62 966.074C1213.73 966.074 1217.06 962.744 1217.06 958.635C1217.06 954.527 1213.73 951.197 1209.62 951.197C1205.52 951.197 1202.18 954.527 1202.18 958.635C1202.18 962.744 1205.52 966.074 1209.62 966.074Z" fill="#FCF8F7"/>
<path d="M724.993 941.123C729.102 941.123 732.432 937.793 732.432 933.684C732.432 929.576 729.102 926.246 724.993 926.246C720.885 926.246 717.555 929.576 717.555 933.684C717.555 937.793 720.885 941.123 724.993 941.123Z" fill="#FCF8F7"/>
<path d="M546.792 913.374C549.74 913.374 552.129 910.985 552.129 908.038C552.129 905.091 549.74 902.702 546.792 902.702C543.845 902.702 541.456 905.091 541.456 908.038C541.456 910.985 543.845 913.374 546.792 913.374Z" fill="#FCF8F7"/>
<path d="M821.443 100.935C824.408 100.935 826.811 98.5312 826.811 95.5662C826.811 92.6012 824.408 90.1976 821.443 90.1976C818.478 90.1976 816.074 92.6012 816.074 95.5662C816.074 98.5312 818.478 100.935 821.443 100.935Z" fill="#FCF8F7"/>
<path d="M1163.57 93.2756C1167.68 93.2756 1171.01 89.9452 1171.01 85.8369C1171.01 81.7287 1167.68 78.3983 1163.57 78.3983C1159.47 78.3983 1156.14 81.7287 1156.14 85.8369C1156.14 89.9452 1159.47 93.2756 1163.57 93.2756Z" fill="#FCF8F7"/>
<path d="M302.111 625.314C306.219 625.314 309.55 621.984 309.55 617.876C309.55 613.768 306.219 610.437 302.111 610.437C298.003 610.437 294.673 613.768 294.673 617.876C294.673 621.984 298.003 625.314 302.111 625.314Z" fill="#FCF8F7"/>
<path d="M510.2 524.006C513.165 524.006 515.568 521.602 515.568 518.637C515.568 515.672 513.165 513.269 510.2 513.269C507.235 513.269 504.831 515.672 504.831 518.637C504.831 521.602 507.235 524.006 510.2 524.006Z" fill="#FCF8F7"/>
<path d="M446.278 259.759C449.799 259.759 452.654 256.905 452.654 253.383C452.654 249.862 449.799 247.007 446.278 247.007C442.757 247.007 439.902 249.862 439.902 253.383C439.902 256.905 442.757 259.759 446.278 259.759Z" fill="#FCF8F7"/>
<path d="M1331.83 647.984C1335.35 647.984 1338.21 645.13 1338.21 641.608C1338.21 638.087 1335.35 635.232 1331.83 635.232C1328.31 635.232 1325.45 638.087 1325.45 641.608C1325.45 645.13 1328.31 647.984 1331.83 647.984Z" fill="#FCF8F7"/>
<path d="M1434.46 512.266C1437.42 512.266 1439.82 509.865 1439.82 506.903C1439.82 503.94 1437.42 501.539 1434.46 501.539C1431.49 501.539 1429.09 503.94 1429.09 506.903C1429.09 509.865 1431.49 512.266 1434.46 512.266Z" fill="#FCF8F7"/>
</svg>
